<?xml version="1.0" encoding="utf-8" standalone="no"?>
<!DOCTYPE svg PUBLIC "-//W3C//DTD SVG 1.1//EN"
  "http://www.w3.org/Graphics/SVG/1.1/DTD/svg11.dtd">
<!-- Created with matplotlib (https://matplotlib.org/) -->
<svg height="8640pt" version="1.1" viewBox="0 0 8640 8640" width="8640pt" xmlns="http://www.w3.org/2000/svg" xmlns:xlink="http://www.w3.org/1999/xlink">
 <defs>
  <style type="text/css">
*{stroke-linecap:butt;stroke-linejoin:round;}
  </style>
 </defs>
 <g id="figure_1">
  <g id="patch_1">
   <path d="M 0 8640 
L 8640 8640 
L 8640 0 
L 0 0 
z
" style="fill:none;"/>
  </g>
  <g id="axes_1">
   <g id="patch_2">
    <path d="M 7471.636364 4297.064064 
C 7471.636364 3766.11523 7332.702671 3244.294342 7068.690002 2783.638315 
C 6804.677334 2322.982287 6424.663376 1939.330099 5966.543801 1670.940233 
L 4428.026215 4297.064064 
L 7471.636364 4297.064064 
z
" style="fill:#a9a9a9;"/>
   </g>
   <g id="patch_3">
    <path d="M 5966.543801 1670.940233 
C 5521.287247 1410.086183 5016.918583 1266.706536 4501.026112 1254.32948 
C 3985.13364 1241.952423 3474.469425 1360.979866 3017.215769 1600.181304 
C 2559.962112 1839.382742 2170.96696 2190.990825 1886.932866 2621.830549 
C 1602.898773 3052.670273 1433.048896 3548.751408 1393.408949 4063.267597 
L 4428.026215 4297.064064 
L 5966.543801 1670.940233 
z
" style="fill:#1e90ff;"/>
   </g>
   <g id="patch_4">
    <path d="M 1393.408949 4063.267597 
C 1392.134154 4079.814114 1390.994711 4096.370781 1389.990736 4112.935937 
C 1388.986762 4129.501092 1388.118288 4146.074182 1387.385403 4162.653544 
L 4428.026215 4297.064064 
L 1393.408949 4063.267597 
z
" style="fill:#ffc0cb;"/>
   </g>
   <g id="patch_5">
    <path d="M 1387.385403 4162.653544 
C 1386.615275 4180.075403 1385.994894 4197.50356 1385.524328 4214.936083 
C 1385.053762 4232.368606 1384.733029 4249.804851 1384.562163 4267.242887 
L 4428.026215 4297.064064 
L 1387.385403 4162.653544 
z
" style="fill:#ff6347;"/>
   </g>
   <g id="patch_6">
    <path d="M 1384.562163 4267.242887 
C 1384.363636 4287.503971 1384.367439 4307.766532 1384.57357 4328.027541 
C 1384.779702 4348.288549 1385.188152 4368.546994 1385.798859 4388.799845 
L 4428.026215 4297.064064 
L 1384.562163 4267.242887 
z
" style="fill:#800080;"/>
   </g>
   <g id="patch_7">
    <path d="M 1385.798859 4388.799845 
C 1385.901465 4392.202547 1386.009779 4395.605075 1386.123802 4399.007414 
C 1386.237825 4402.409753 1386.357555 4405.811898 1386.482994 4409.213835 
L 4428.026215 4297.064064 
L 1385.798859 4388.799845 
z
" style="fill:#da70d6;"/>
   </g>
   <g id="patch_8">
    <path d="M 1386.482994 4409.213835 
C 1415.858305 5205.883135 1757.095382 5959.963972 2336.173269 6507.881558 
C 2915.251157 7055.799145 3687.03525 7354.847577 4484.11058 7340.157438 
C 5281.18591 7325.467299 6041.426669 6998.183572 6599.921863 6429.300456 
C 7158.417058 5860.41734 7471.636341 5094.274839 7471.636364 4297.064151 
L 4428.026215 4297.064064 
L 1386.482994 4409.213835 
z
" style="fill:#d3d3d3;"/>
   </g>
   <g id="matplotlib.axis_1"/>
   <g id="matplotlib.axis_2"/>
  </g>
 </g>
</svg>
