<?xml version="1.0" encoding="utf-8" standalone="no"?>
<!DOCTYPE svg PUBLIC "-//W3C//DTD SVG 1.1//EN"
  "http://www.w3.org/Graphics/SVG/1.1/DTD/svg11.dtd">
<!-- Created with matplotlib (https://matplotlib.org/) -->
<svg height="8640pt" version="1.1" viewBox="0 0 8640 8640" width="8640pt" xmlns="http://www.w3.org/2000/svg" xmlns:xlink="http://www.w3.org/1999/xlink">
 <defs>
  <style type="text/css">
*{stroke-linecap:butt;stroke-linejoin:round;}
  </style>
 </defs>
 <g id="figure_1">
  <g id="patch_1">
   <path d="M 0 8640 
L 8640 8640 
L 8640 0 
L 0 0 
z
" style="fill:none;"/>
  </g>
  <g id="axes_1">
   <g id="patch_2">
    <path d="M 7471.636327 4290.615017 
C 7471.636327 3659.099211 7275.035352 3042.978488 6909.252949 2528.181977 
C 6543.470546 2013.385467 6026.34079 1625.012573 5429.986739 1417.22889 
C 4833.632687 1209.445206 4187.130161 1192.381428 3580.645579 1368.417406 
C 2974.160998 1544.453384 2437.264105 1905.006315 2044.834841 2399.790597 
L 4428.831883 4290.615017 
L 7471.636327 4290.615017 
z
" style="fill:#a9a9a9;"/>
   </g>
   <g id="patch_3">
    <path d="M 2044.834841 2399.790597 
C 1831.457029 2668.822489 1665.150479 2972.042974 1552.974629 3296.580842 
C 1440.798779 3621.11871 1384.363636 3962.316022 1386.06478 4305.689515 
L 4428.831883 4290.615017 
L 2044.834841 2399.790597 
z
" style="fill:#1e90ff;"/>
   </g>
   <g id="patch_4">
    <path d="M 1386.06478 4305.689515 
C 1386.064947 4305.723368 1386.065116 4305.757222 1386.065284 4305.791076 
C 1386.065453 4305.82493 1386.065623 4305.858784 1386.065793 4305.892637 
L 4428.831883 4290.615017 
L 1386.06478 4305.689515 
z
" style="fill:#90ee90;"/>
   </g>
   <g id="patch_5">
    <path d="M 1386.065793 4305.892637 
C 1386.796698 4451.463407 1397.973169 4596.794249 1419.509062 4740.76504 
C 1441.044955 4884.735831 1472.8848 5026.975738 1514.783195 5166.388463 
L 4428.831883 4290.615017 
L 1386.065793 4305.892637 
z
" style="fill:#32cd32;"/>
   </g>
   <g id="patch_6">
    <path d="M 1514.783195 5166.388463 
C 1514.85247 5166.61897 1514.921773 5166.849469 1514.991103 5167.07996 
C 1515.060433 5167.310451 1515.129791 5167.540933 1515.199176 5167.771407 
L 4428.831883 4290.615017 
L 1514.783195 5166.388463 
z
"/>
   </g>
   <g id="patch_7">
    <path d="M 1515.199176 5167.771407 
C 1516.198414 5171.090556 1517.203322 5174.407994 1518.213898 5177.723709 
C 1519.224473 5181.039423 1520.240714 5184.353407 1521.262615 5187.665649 
L 4428.831883 4290.615017 
L 1515.199176 5167.771407 
z
" style="fill:#800080;"/>
   </g>
   <g id="patch_8">
    <path d="M 1521.262615 5187.665649 
C 1553.289184 5291.471906 1590.851934 5393.488599 1633.789478 5493.277414 
C 1676.727021 5593.066228 1724.977775 5690.484044 1778.33443 5785.112303 
L 4428.831883 4290.615017 
L 1521.262615 5187.665649 
z
" style="fill:#da70d6;"/>
   </g>
   <g id="patch_9">
    <path d="M 1778.33443 5785.112303 
C 2108.565538 6370.778612 2623.781292 6830.79392 3242.971205 7092.82724 
C 3862.161119 7354.860559 4551.077195 7404.418572 5201.396995 7233.708973 
C 5851.716795 7062.999374 6427.470498 6681.464277 6838.128869 6149.094751 
C 7248.787239 5616.725225 7471.636364 4962.967147 7471.636327 4290.614851 
L 4428.831883 4290.615017 
L 1778.33443 5785.112303 
z
" style="fill:#d3d3d3;"/>
   </g>
   <g id="matplotlib.axis_1"/>
   <g id="matplotlib.axis_2"/>
  </g>
 </g>
</svg>
