<?xml version="1.0" encoding="utf-8" standalone="no"?>
<!DOCTYPE svg PUBLIC "-//W3C//DTD SVG 1.1//EN"
  "http://www.w3.org/Graphics/SVG/1.1/DTD/svg11.dtd">
<!-- Created with matplotlib (https://matplotlib.org/) -->
<svg height="2880pt" version="1.1" viewBox="0 0 4320 2880" width="4320pt" xmlns="http://www.w3.org/2000/svg" xmlns:xlink="http://www.w3.org/1999/xlink">
 <defs>
  <style type="text/css">
*{stroke-linecap:butt;stroke-linejoin:round;}
  </style>
 </defs>
 <g id="figure_1">
  <g id="patch_1">
   <path d="M 0 2880 
L 4320 2880 
L 4320 0 
L 0 0 
z
" style="fill:none;"/>
  </g>
  <g id="axes_1">
   <g id="patch_2">
    <path d="M 540 2520 
L 3888 2520 
L 3888 345.6 
L 540 345.6 
z
" style="fill:none;"/>
   </g>
   <g id="matplotlib.axis_1">
    <g id="xtick_1">
     <g id="line2d_1">
      <defs>
       <path d="M 0 0 
L 0 3.5 
" id="m617bbc7c41" style="stroke:#000000;stroke-width:0.8;"/>
      </defs>
      <g>
       <use style="stroke:#000000;stroke-width:0.8;" x="692.181818" xlink:href="#m617bbc7c41" y="2520"/>
      </g>
     </g>
     <g id="text_1">
      <!-- relu1 -->
      <defs>
       <path d="M 41.109375 46.296875 
Q 39.59375 47.171875 37.8125 47.578125 
Q 36.03125 48 33.890625 48 
Q 26.265625 48 22.1875 43.046875 
Q 18.109375 38.09375 18.109375 28.8125 
L 18.109375 0 
L 9.078125 0 
L 9.078125 54.6875 
L 18.109375 54.6875 
L 18.109375 46.1875 
Q 20.953125 51.171875 25.484375 53.578125 
Q 30.03125 56 36.53125 56 
Q 37.453125 56 38.578125 55.875 
Q 39.703125 55.765625 41.0625 55.515625 
z
" id="DejaVuSans-114"/>
       <path d="M 56.203125 29.59375 
L 56.203125 25.203125 
L 14.890625 25.203125 
Q 15.484375 15.921875 20.484375 11.0625 
Q 25.484375 6.203125 34.421875 6.203125 
Q 39.59375 6.203125 44.453125 7.46875 
Q 49.3125 8.734375 54.109375 11.28125 
L 54.109375 2.78125 
Q 49.265625 0.734375 44.1875 -0.34375 
Q 39.109375 -1.421875 33.890625 -1.421875 
Q 20.796875 -1.421875 13.15625 6.1875 
Q 5.515625 13.8125 5.515625 26.8125 
Q 5.515625 40.234375 12.765625 48.109375 
Q 20.015625 56 32.328125 56 
Q 43.359375 56 49.78125 48.890625 
Q 56.203125 41.796875 56.203125 29.59375 
z
M 47.21875 32.234375 
Q 47.125 39.59375 43.09375 43.984375 
Q 39.0625 48.390625 32.421875 48.390625 
Q 24.90625 48.390625 20.390625 44.140625 
Q 15.875 39.890625 15.1875 32.171875 
z
" id="DejaVuSans-101"/>
       <path d="M 9.421875 75.984375 
L 18.40625 75.984375 
L 18.40625 0 
L 9.421875 0 
z
" id="DejaVuSans-108"/>
       <path d="M 8.5 21.578125 
L 8.5 54.6875 
L 17.484375 54.6875 
L 17.484375 21.921875 
Q 17.484375 14.15625 20.5 10.265625 
Q 23.53125 6.390625 29.59375 6.390625 
Q 36.859375 6.390625 41.078125 11.03125 
Q 45.3125 15.671875 45.3125 23.6875 
L 45.3125 54.6875 
L 54.296875 54.6875 
L 54.296875 0 
L 45.3125 0 
L 45.3125 8.40625 
Q 42.046875 3.421875 37.71875 1 
Q 33.40625 -1.421875 27.6875 -1.421875 
Q 18.265625 -1.421875 13.375 4.4375 
Q 8.5 10.296875 8.5 21.578125 
z
M 31.109375 56 
z
" id="DejaVuSans-117"/>
       <path d="M 12.40625 8.296875 
L 28.515625 8.296875 
L 28.515625 63.921875 
L 10.984375 60.40625 
L 10.984375 69.390625 
L 28.421875 72.90625 
L 38.28125 72.90625 
L 38.28125 8.296875 
L 54.390625 8.296875 
L 54.390625 0 
L 12.40625 0 
z
" id="DejaVuSans-49"/>
      </defs>
      <g transform="translate(719.775568 2784.390625)rotate(-90)scale(1 -1)">
       <use xlink:href="#DejaVuSans-114"/>
       <use x="41.082031" xlink:href="#DejaVuSans-101"/>
       <use x="102.605469" xlink:href="#DejaVuSans-108"/>
       <use x="130.388672" xlink:href="#DejaVuSans-117"/>
       <use x="193.767578" xlink:href="#DejaVuSans-49"/>
      </g>
     </g>
    </g>
    <g id="xtick_2">
     <g id="line2d_2">
      <g>
       <use style="stroke:#000000;stroke-width:0.8;" x="1199.454545" xlink:href="#m617bbc7c41" y="2520"/>
      </g>
     </g>
     <g id="text_2">
      <!-- relu2 -->
      <defs>
       <path d="M 19.1875 8.296875 
L 53.609375 8.296875 
L 53.609375 0 
L 7.328125 0 
L 7.328125 8.296875 
Q 12.9375 14.109375 22.625 23.890625 
Q 32.328125 33.6875 34.8125 36.53125 
Q 39.546875 41.84375 41.421875 45.53125 
Q 43.3125 49.21875 43.3125 52.78125 
Q 43.3125 58.59375 39.234375 62.25 
Q 35.15625 65.921875 28.609375 65.921875 
Q 23.96875 65.921875 18.8125 64.3125 
Q 13.671875 62.703125 7.8125 59.421875 
L 7.8125 69.390625 
Q 13.765625 71.78125 18.9375 73 
Q 24.125 74.21875 28.421875 74.21875 
Q 39.75 74.21875 46.484375 68.546875 
Q 53.21875 62.890625 53.21875 53.421875 
Q 53.21875 48.921875 51.53125 44.890625 
Q 49.859375 40.875 45.40625 35.40625 
Q 44.1875 33.984375 37.640625 27.21875 
Q 31.109375 20.453125 19.1875 8.296875 
z
" id="DejaVuSans-50"/>
      </defs>
      <g transform="translate(1227.048295 2784.390625)rotate(-90)scale(1 -1)">
       <use xlink:href="#DejaVuSans-114"/>
       <use x="41.082031" xlink:href="#DejaVuSans-101"/>
       <use x="102.605469" xlink:href="#DejaVuSans-108"/>
       <use x="130.388672" xlink:href="#DejaVuSans-117"/>
       <use x="193.767578" xlink:href="#DejaVuSans-50"/>
      </g>
     </g>
    </g>
    <g id="xtick_3">
     <g id="line2d_3">
      <g>
       <use style="stroke:#000000;stroke-width:0.8;" x="1706.727273" xlink:href="#m617bbc7c41" y="2520"/>
      </g>
     </g>
     <g id="text_3">
      <!-- relu3 -->
      <defs>
       <path d="M 40.578125 39.3125 
Q 47.65625 37.796875 51.625 33 
Q 55.609375 28.21875 55.609375 21.1875 
Q 55.609375 10.40625 48.1875 4.484375 
Q 40.765625 -1.421875 27.09375 -1.421875 
Q 22.515625 -1.421875 17.65625 -0.515625 
Q 12.796875 0.390625 7.625 2.203125 
L 7.625 11.71875 
Q 11.71875 9.328125 16.59375 8.109375 
Q 21.484375 6.890625 26.8125 6.890625 
Q 36.078125 6.890625 40.9375 10.546875 
Q 45.796875 14.203125 45.796875 21.1875 
Q 45.796875 27.640625 41.28125 31.265625 
Q 36.765625 34.90625 28.71875 34.90625 
L 20.21875 34.90625 
L 20.21875 43.015625 
L 29.109375 43.015625 
Q 36.375 43.015625 40.234375 45.921875 
Q 44.09375 48.828125 44.09375 54.296875 
Q 44.09375 59.90625 40.109375 62.90625 
Q 36.140625 65.921875 28.71875 65.921875 
Q 24.65625 65.921875 20.015625 65.03125 
Q 15.375 64.15625 9.8125 62.3125 
L 9.8125 71.09375 
Q 15.4375 72.65625 20.34375 73.4375 
Q 25.25 74.21875 29.59375 74.21875 
Q 40.828125 74.21875 47.359375 69.109375 
Q 53.90625 64.015625 53.90625 55.328125 
Q 53.90625 49.265625 50.4375 45.09375 
Q 46.96875 40.921875 40.578125 39.3125 
z
" id="DejaVuSans-51"/>
      </defs>
      <g transform="translate(1734.321023 2784.390625)rotate(-90)scale(1 -1)">
       <use xlink:href="#DejaVuSans-114"/>
       <use x="41.082031" xlink:href="#DejaVuSans-101"/>
       <use x="102.605469" xlink:href="#DejaVuSans-108"/>
       <use x="130.388672" xlink:href="#DejaVuSans-117"/>
       <use x="193.767578" xlink:href="#DejaVuSans-51"/>
      </g>
     </g>
    </g>
    <g id="xtick_4">
     <g id="line2d_4">
      <g>
       <use style="stroke:#000000;stroke-width:0.8;" x="2214" xlink:href="#m617bbc7c41" y="2520"/>
      </g>
     </g>
     <g id="text_4">
      <!-- relu4 -->
      <defs>
       <path d="M 37.796875 64.3125 
L 12.890625 25.390625 
L 37.796875 25.390625 
z
M 35.203125 72.90625 
L 47.609375 72.90625 
L 47.609375 25.390625 
L 58.015625 25.390625 
L 58.015625 17.1875 
L 47.609375 17.1875 
L 47.609375 0 
L 37.796875 0 
L 37.796875 17.1875 
L 4.890625 17.1875 
L 4.890625 26.703125 
z
" id="DejaVuSans-52"/>
      </defs>
      <g transform="translate(2241.59375 2784.390625)rotate(-90)scale(1 -1)">
       <use xlink:href="#DejaVuSans-114"/>
       <use x="41.082031" xlink:href="#DejaVuSans-101"/>
       <use x="102.605469" xlink:href="#DejaVuSans-108"/>
       <use x="130.388672" xlink:href="#DejaVuSans-117"/>
       <use x="193.767578" xlink:href="#DejaVuSans-52"/>
      </g>
     </g>
    </g>
    <g id="xtick_5">
     <g id="line2d_5">
      <g>
       <use style="stroke:#000000;stroke-width:0.8;" x="2721.272727" xlink:href="#m617bbc7c41" y="2520"/>
      </g>
     </g>
     <g id="text_5">
      <!-- relu5 -->
      <defs>
       <path d="M 10.796875 72.90625 
L 49.515625 72.90625 
L 49.515625 64.59375 
L 19.828125 64.59375 
L 19.828125 46.734375 
Q 21.96875 47.46875 24.109375 47.828125 
Q 26.265625 48.1875 28.421875 48.1875 
Q 40.625 48.1875 47.75 41.5 
Q 54.890625 34.8125 54.890625 23.390625 
Q 54.890625 11.625 47.5625 5.09375 
Q 40.234375 -1.421875 26.90625 -1.421875 
Q 22.3125 -1.421875 17.546875 -0.640625 
Q 12.796875 0.140625 7.71875 1.703125 
L 7.71875 11.625 
Q 12.109375 9.234375 16.796875 8.0625 
Q 21.484375 6.890625 26.703125 6.890625 
Q 35.15625 6.890625 40.078125 11.328125 
Q 45.015625 15.765625 45.015625 23.390625 
Q 45.015625 31 40.078125 35.4375 
Q 35.15625 39.890625 26.703125 39.890625 
Q 22.75 39.890625 18.8125 39.015625 
Q 14.890625 38.140625 10.796875 36.28125 
z
" id="DejaVuSans-53"/>
      </defs>
      <g transform="translate(2748.866477 2784.390625)rotate(-90)scale(1 -1)">
       <use xlink:href="#DejaVuSans-114"/>
       <use x="41.082031" xlink:href="#DejaVuSans-101"/>
       <use x="102.605469" xlink:href="#DejaVuSans-108"/>
       <use x="130.388672" xlink:href="#DejaVuSans-117"/>
       <use x="193.767578" xlink:href="#DejaVuSans-53"/>
      </g>
     </g>
    </g>
    <g id="xtick_6">
     <g id="line2d_6">
      <g>
       <use style="stroke:#000000;stroke-width:0.8;" x="3228.545455" xlink:href="#m617bbc7c41" y="2520"/>
      </g>
     </g>
     <g id="text_6">
      <!-- relu6 -->
      <defs>
       <path d="M 33.015625 40.375 
Q 26.375 40.375 22.484375 35.828125 
Q 18.609375 31.296875 18.609375 23.390625 
Q 18.609375 15.53125 22.484375 10.953125 
Q 26.375 6.390625 33.015625 6.390625 
Q 39.65625 6.390625 43.53125 10.953125 
Q 47.40625 15.53125 47.40625 23.390625 
Q 47.40625 31.296875 43.53125 35.828125 
Q 39.65625 40.375 33.015625 40.375 
z
M 52.59375 71.296875 
L 52.59375 62.3125 
Q 48.875 64.0625 45.09375 64.984375 
Q 41.3125 65.921875 37.59375 65.921875 
Q 27.828125 65.921875 22.671875 59.328125 
Q 17.53125 52.734375 16.796875 39.40625 
Q 19.671875 43.65625 24.015625 45.921875 
Q 28.375 48.1875 33.59375 48.1875 
Q 44.578125 48.1875 50.953125 41.515625 
Q 57.328125 34.859375 57.328125 23.390625 
Q 57.328125 12.15625 50.6875 5.359375 
Q 44.046875 -1.421875 33.015625 -1.421875 
Q 20.359375 -1.421875 13.671875 8.265625 
Q 6.984375 17.96875 6.984375 36.375 
Q 6.984375 53.65625 15.1875 63.9375 
Q 23.390625 74.21875 37.203125 74.21875 
Q 40.921875 74.21875 44.703125 73.484375 
Q 48.484375 72.75 52.59375 71.296875 
z
" id="DejaVuSans-54"/>
      </defs>
      <g transform="translate(3256.139205 2784.390625)rotate(-90)scale(1 -1)">
       <use xlink:href="#DejaVuSans-114"/>
       <use x="41.082031" xlink:href="#DejaVuSans-101"/>
       <use x="102.605469" xlink:href="#DejaVuSans-108"/>
       <use x="130.388672" xlink:href="#DejaVuSans-117"/>
       <use x="193.767578" xlink:href="#DejaVuSans-54"/>
      </g>
     </g>
    </g>
    <g id="xtick_7">
     <g id="line2d_7">
      <g>
       <use style="stroke:#000000;stroke-width:0.8;" x="3735.818182" xlink:href="#m617bbc7c41" y="2520"/>
      </g>
     </g>
     <g id="text_7">
      <!-- relu7 -->
      <defs>
       <path d="M 8.203125 72.90625 
L 55.078125 72.90625 
L 55.078125 68.703125 
L 28.609375 0 
L 18.3125 0 
L 43.21875 64.59375 
L 8.203125 64.59375 
z
" id="DejaVuSans-55"/>
      </defs>
      <g transform="translate(3763.411932 2784.390625)rotate(-90)scale(1 -1)">
       <use xlink:href="#DejaVuSans-114"/>
       <use x="41.082031" xlink:href="#DejaVuSans-101"/>
       <use x="102.605469" xlink:href="#DejaVuSans-108"/>
       <use x="130.388672" xlink:href="#DejaVuSans-117"/>
       <use x="193.767578" xlink:href="#DejaVuSans-55"/>
      </g>
     </g>
    </g>
   </g>
   <g id="matplotlib.axis_2">
    <g id="ytick_1">
     <g id="line2d_8">
      <defs>
       <path d="M 0 0 
L -3.5 0 
" id="m4a951487f0" style="stroke:#000000;stroke-width:0.8;"/>
      </defs>
      <g>
       <use style="stroke:#000000;stroke-width:0.8;" x="540" xlink:href="#m4a951487f0" y="2352.738462"/>
      </g>
     </g>
     <g id="text_8">
      <!-- −0.2 -->
      <defs>
       <path d="M 10.59375 35.5 
L 73.1875 35.5 
L 73.1875 27.203125 
L 10.59375 27.203125 
z
" id="DejaVuSans-8722"/>
       <path d="M 31.78125 66.40625 
Q 24.171875 66.40625 20.328125 58.90625 
Q 16.5 51.421875 16.5 36.375 
Q 16.5 21.390625 20.328125 13.890625 
Q 24.171875 6.390625 31.78125 6.390625 
Q 39.453125 6.390625 43.28125 13.890625 
Q 47.125 21.390625 47.125 36.375 
Q 47.125 51.421875 43.28125 58.90625 
Q 39.453125 66.40625 31.78125 66.40625 
z
M 31.78125 74.21875 
Q 44.046875 74.21875 50.515625 64.515625 
Q 56.984375 54.828125 56.984375 36.375 
Q 56.984375 17.96875 50.515625 8.265625 
Q 44.046875 -1.421875 31.78125 -1.421875 
Q 19.53125 -1.421875 13.0625 8.265625 
Q 6.59375 17.96875 6.59375 36.375 
Q 6.59375 54.828125 13.0625 64.515625 
Q 19.53125 74.21875 31.78125 74.21875 
z
" id="DejaVuSans-48"/>
       <path d="M 10.6875 12.40625 
L 21 12.40625 
L 21 0 
L 10.6875 0 
z
" id="DejaVuSans-46"/>
      </defs>
      <g transform="translate(290.171875 2390.730649)scale(1 -1)">
       <use xlink:href="#DejaVuSans-8722"/>
       <use x="83.789062" xlink:href="#DejaVuSans-48"/>
       <use x="147.412109" xlink:href="#DejaVuSans-46"/>
       <use x="179.199219" xlink:href="#DejaVuSans-50"/>
      </g>
     </g>
    </g>
    <g id="ytick_2">
     <g id="line2d_9">
      <g>
       <use style="stroke:#000000;stroke-width:0.8;" x="540" xlink:href="#m4a951487f0" y="2018.215385"/>
      </g>
     </g>
     <g id="text_9">
      <!-- 0.0 -->
      <g transform="translate(373.96875 2056.207572)scale(1 -1)">
       <use xlink:href="#DejaVuSans-48"/>
       <use x="63.623047" xlink:href="#DejaVuSans-46"/>
       <use x="95.410156" xlink:href="#DejaVuSans-48"/>
      </g>
     </g>
    </g>
    <g id="ytick_3">
     <g id="line2d_10">
      <g>
       <use style="stroke:#000000;stroke-width:0.8;" x="540" xlink:href="#m4a951487f0" y="1683.692308"/>
      </g>
     </g>
     <g id="text_10">
      <!-- 0.2 -->
      <g transform="translate(373.96875 1721.684495)scale(1 -1)">
       <use xlink:href="#DejaVuSans-48"/>
       <use x="63.623047" xlink:href="#DejaVuSans-46"/>
       <use x="95.410156" xlink:href="#DejaVuSans-50"/>
      </g>
     </g>
    </g>
    <g id="ytick_4">
     <g id="line2d_11">
      <g>
       <use style="stroke:#000000;stroke-width:0.8;" x="540" xlink:href="#m4a951487f0" y="1349.169231"/>
      </g>
     </g>
     <g id="text_11">
      <!-- 0.4 -->
      <g transform="translate(373.96875 1387.161418)scale(1 -1)">
       <use xlink:href="#DejaVuSans-48"/>
       <use x="63.623047" xlink:href="#DejaVuSans-46"/>
       <use x="95.410156" xlink:href="#DejaVuSans-52"/>
      </g>
     </g>
    </g>
    <g id="ytick_5">
     <g id="line2d_12">
      <g>
       <use style="stroke:#000000;stroke-width:0.8;" x="540" xlink:href="#m4a951487f0" y="1014.646154"/>
      </g>
     </g>
     <g id="text_12">
      <!-- 0.6 -->
      <g transform="translate(373.96875 1052.638341)scale(1 -1)">
       <use xlink:href="#DejaVuSans-48"/>
       <use x="63.623047" xlink:href="#DejaVuSans-46"/>
       <use x="95.410156" xlink:href="#DejaVuSans-54"/>
      </g>
     </g>
    </g>
    <g id="ytick_6">
     <g id="line2d_13">
      <g>
       <use style="stroke:#000000;stroke-width:0.8;" x="540" xlink:href="#m4a951487f0" y="680.123077"/>
      </g>
     </g>
     <g id="text_13">
      <!-- 0.8 -->
      <defs>
       <path d="M 31.78125 34.625 
Q 24.75 34.625 20.71875 30.859375 
Q 16.703125 27.09375 16.703125 20.515625 
Q 16.703125 13.921875 20.71875 10.15625 
Q 24.75 6.390625 31.78125 6.390625 
Q 38.8125 6.390625 42.859375 10.171875 
Q 46.921875 13.96875 46.921875 20.515625 
Q 46.921875 27.09375 42.890625 30.859375 
Q 38.875 34.625 31.78125 34.625 
z
M 21.921875 38.8125 
Q 15.578125 40.375 12.03125 44.71875 
Q 8.5 49.078125 8.5 55.328125 
Q 8.5 64.0625 14.71875 69.140625 
Q 20.953125 74.21875 31.78125 74.21875 
Q 42.671875 74.21875 48.875 69.140625 
Q 55.078125 64.0625 55.078125 55.328125 
Q 55.078125 49.078125 51.53125 44.71875 
Q 48 40.375 41.703125 38.8125 
Q 48.828125 37.15625 52.796875 32.3125 
Q 56.78125 27.484375 56.78125 20.515625 
Q 56.78125 9.90625 50.3125 4.234375 
Q 43.84375 -1.421875 31.78125 -1.421875 
Q 19.734375 -1.421875 13.25 4.234375 
Q 6.78125 9.90625 6.78125 20.515625 
Q 6.78125 27.484375 10.78125 32.3125 
Q 14.796875 37.15625 21.921875 38.8125 
z
M 18.3125 54.390625 
Q 18.3125 48.734375 21.84375 45.5625 
Q 25.390625 42.390625 31.78125 42.390625 
Q 38.140625 42.390625 41.71875 45.5625 
Q 45.3125 48.734375 45.3125 54.390625 
Q 45.3125 60.0625 41.71875 63.234375 
Q 38.140625 66.40625 31.78125 66.40625 
Q 25.390625 66.40625 21.84375 63.234375 
Q 18.3125 60.0625 18.3125 54.390625 
z
" id="DejaVuSans-56"/>
      </defs>
      <g transform="translate(373.96875 718.115264)scale(1 -1)">
       <use xlink:href="#DejaVuSans-48"/>
       <use x="63.623047" xlink:href="#DejaVuSans-46"/>
       <use x="95.410156" xlink:href="#DejaVuSans-56"/>
      </g>
     </g>
    </g>
    <g id="ytick_7">
     <g id="line2d_14">
      <g>
       <use style="stroke:#000000;stroke-width:0.8;" x="540" xlink:href="#m4a951487f0" y="345.6"/>
      </g>
     </g>
     <g id="text_14">
      <!-- 1.0 -->
      <g transform="translate(373.96875 383.592188)scale(1 -1)">
       <use xlink:href="#DejaVuSans-49"/>
       <use x="63.623047" xlink:href="#DejaVuSans-46"/>
       <use x="95.410156" xlink:href="#DejaVuSans-48"/>
      </g>
     </g>
    </g>
   </g>
   <g id="line2d_15">
    <path clip-path="url(#p77b0f7d591)" d="M 692.181818 1625.579956 
" style="fill:none;stroke:#808080;stroke-linecap:square;stroke-width:1.5;"/>
    <defs>
     <path d="M 0 50 
C 13.260155 50 25.978994 44.731685 35.355339 35.355339 
C 44.731685 25.978994 50 13.260155 50 0 
C 50 -13.260155 44.731685 -25.978994 35.355339 -35.355339 
C 25.978994 -44.731685 13.260155 -50 0 -50 
C -13.260155 -50 -25.978994 -44.731685 -35.355339 -35.355339 
C -44.731685 -25.978994 -50 -13.260155 -50 0 
C -50 13.260155 -44.731685 25.978994 -35.355339 35.355339 
C -25.978994 44.731685 -13.260155 50 0 50 
z
" id="m432eb327d5" style="stroke:#808080;"/>
    </defs>
    <g clip-path="url(#p77b0f7d591)">
     <use style="fill:#808080;stroke:#808080;" x="692.181818" xlink:href="#m432eb327d5" y="1625.579956"/>
    </g>
   </g>
   <g id="line2d_16">
    <path clip-path="url(#p77b0f7d591)" d="M 1199.454545 2317.006938 
" style="fill:none;stroke:#808080;stroke-linecap:square;stroke-width:1.5;"/>
    <g clip-path="url(#p77b0f7d591)">
     <use style="fill:#808080;stroke:#808080;" x="1199.454545" xlink:href="#m432eb327d5" y="2317.006938"/>
    </g>
   </g>
   <g id="line2d_17">
    <path clip-path="url(#p77b0f7d591)" d="M 1706.727273 2360.560188 
" style="fill:none;stroke:#808080;stroke-linecap:square;stroke-width:1.5;"/>
    <g clip-path="url(#p77b0f7d591)">
     <use style="fill:#808080;stroke:#808080;" x="1706.727273" xlink:href="#m432eb327d5" y="2360.560188"/>
    </g>
   </g>
   <g id="line2d_18">
    <path clip-path="url(#p77b0f7d591)" d="M 2214 2347.511645 
" style="fill:none;stroke:#808080;stroke-linecap:square;stroke-width:1.5;"/>
    <g clip-path="url(#p77b0f7d591)">
     <use style="fill:#808080;stroke:#808080;" x="2214" xlink:href="#m432eb327d5" y="2347.511645"/>
    </g>
   </g>
   <g id="line2d_19">
    <path clip-path="url(#p77b0f7d591)" d="M 2721.272727 2292.158698 
" style="fill:none;stroke:#808080;stroke-linecap:square;stroke-width:1.5;"/>
    <g clip-path="url(#p77b0f7d591)">
     <use style="fill:#808080;stroke:#808080;" x="2721.272727" xlink:href="#m432eb327d5" y="2292.158698"/>
    </g>
   </g>
   <g id="line2d_20">
    <path clip-path="url(#p77b0f7d591)" d="M 3228.545455 2212.496943 
" style="fill:none;stroke:#808080;stroke-linecap:square;stroke-width:1.5;"/>
    <g clip-path="url(#p77b0f7d591)">
     <use style="fill:#808080;stroke:#808080;" x="3228.545455" xlink:href="#m432eb327d5" y="2212.496943"/>
    </g>
   </g>
   <g id="line2d_21">
    <path clip-path="url(#p77b0f7d591)" d="M 3735.818182 2048.780558 
" style="fill:none;stroke:#808080;stroke-linecap:square;stroke-width:1.5;"/>
    <g clip-path="url(#p77b0f7d591)">
     <use style="fill:#808080;stroke:#808080;" x="3735.818182" xlink:href="#m432eb327d5" y="2048.780558"/>
    </g>
   </g>
   <g id="line2d_22">
    <path clip-path="url(#p77b0f7d591)" d="M 692.181818 1625.579956 
L 1199.454545 2317.006938 
L 1706.727273 2360.560188 
L 2214 2347.511645 
L 2721.272727 2292.158698 
L 3228.545455 2212.496943 
L 3735.818182 2048.780558 
" style="fill:none;stroke:#808080;stroke-linecap:square;stroke-width:15;"/>
   </g>
   <g id="line2d_23">
    <path clip-path="url(#p77b0f7d591)" d="M 540 2018.215385 
L 4321 2018.215385 
L 4321 2018.215385 
" style="fill:none;stroke:#000000;stroke-linecap:square;stroke-width:1.5;"/>
   </g>
   <g id="line2d_24">
    <path clip-path="url(#p77b0f7d591)" d="M 692.181818 1766.965559 
" style="fill:none;stroke:#32cd32;stroke-linecap:square;stroke-width:1.5;"/>
    <defs>
     <path d="M 0 50 
C 13.260155 50 25.978994 44.731685 35.355339 35.355339 
C 44.731685 25.978994 50 13.260155 50 0 
C 50 -13.260155 44.731685 -25.978994 35.355339 -35.355339 
C 25.978994 -44.731685 13.260155 -50 0 -50 
C -13.260155 -50 -25.978994 -44.731685 -35.355339 -35.355339 
C -44.731685 -25.978994 -50 -13.260155 -50 0 
C -50 13.260155 -44.731685 25.978994 -35.355339 35.355339 
C -25.978994 44.731685 -13.260155 50 0 50 
z
" id="m1c88795898" style="stroke:#32cd32;"/>
    </defs>
    <g clip-path="url(#p77b0f7d591)">
     <use style="fill:#32cd32;stroke:#32cd32;" x="692.181818" xlink:href="#m1c88795898" y="1766.965559"/>
    </g>
   </g>
   <g id="line2d_25">
    <path clip-path="url(#p77b0f7d591)" d="M 1199.454545 1678.962741 
" style="fill:none;stroke:#32cd32;stroke-linecap:square;stroke-width:1.5;"/>
    <g clip-path="url(#p77b0f7d591)">
     <use style="fill:#32cd32;stroke:#32cd32;" x="1199.454545" xlink:href="#m1c88795898" y="1678.962741"/>
    </g>
   </g>
   <g id="line2d_26">
    <path clip-path="url(#p77b0f7d591)" d="M 1706.727273 1555.844139 
" style="fill:none;stroke:#32cd32;stroke-linecap:square;stroke-width:1.5;"/>
    <g clip-path="url(#p77b0f7d591)">
     <use style="fill:#32cd32;stroke:#32cd32;" x="1706.727273" xlink:href="#m1c88795898" y="1555.844139"/>
    </g>
   </g>
   <g id="line2d_27">
    <path clip-path="url(#p77b0f7d591)" d="M 2214 1401.532189 
" style="fill:none;stroke:#32cd32;stroke-linecap:square;stroke-width:1.5;"/>
    <g clip-path="url(#p77b0f7d591)">
     <use style="fill:#32cd32;stroke:#32cd32;" x="2214" xlink:href="#m1c88795898" y="1401.532189"/>
    </g>
   </g>
   <g id="line2d_28">
    <path clip-path="url(#p77b0f7d591)" d="M 2721.272727 1379.44343 
" style="fill:none;stroke:#32cd32;stroke-linecap:square;stroke-width:1.5;"/>
    <g clip-path="url(#p77b0f7d591)">
     <use style="fill:#32cd32;stroke:#32cd32;" x="2721.272727" xlink:href="#m1c88795898" y="1379.44343"/>
    </g>
   </g>
   <g id="line2d_29">
    <path clip-path="url(#p77b0f7d591)" d="M 3228.545455 1191.463071 
" style="fill:none;stroke:#32cd32;stroke-linecap:square;stroke-width:1.5;"/>
    <defs>
     <path d="M 0 16.666667 
C 4.420052 16.666667 8.659665 14.910562 11.785113 11.785113 
C 14.910562 8.659665 16.666667 4.420052 16.666667 0 
C 16.666667 -4.420052 14.910562 -8.659665 11.785113 -11.785113 
C 8.659665 -14.910562 4.420052 -16.666667 0 -16.666667 
C -4.420052 -16.666667 -8.659665 -14.910562 -11.785113 -11.785113 
C -14.910562 -8.659665 -16.666667 -4.420052 -16.666667 0 
C -16.666667 4.420052 -14.910562 8.659665 -11.785113 11.785113 
C -8.659665 14.910562 -4.420052 16.666667 0 16.666667 
z
" id="md6b82dff84" style="stroke:#32cd32;"/>
    </defs>
    <g clip-path="url(#p77b0f7d591)">
     <use style="fill:#32cd32;stroke:#32cd32;" x="3228.545455" xlink:href="#md6b82dff84" y="1191.463071"/>
    </g>
   </g>
   <g id="line2d_30">
    <path clip-path="url(#p77b0f7d591)" d="M 3735.818182 1187.833078 
" style="fill:none;stroke:#32cd32;stroke-linecap:square;stroke-width:1.5;"/>
    <g clip-path="url(#p77b0f7d591)">
     <use style="fill:#32cd32;stroke:#32cd32;" x="3735.818182" xlink:href="#md6b82dff84" y="1187.833078"/>
    </g>
   </g>
   <g id="line2d_31">
    <path clip-path="url(#p77b0f7d591)" d="M 692.181818 1766.965559 
L 1199.454545 1678.962741 
L 1706.727273 1555.844139 
L 2214 1401.532189 
L 2721.272727 1379.44343 
L 3228.545455 1191.463071 
L 3735.818182 1187.833078 
" style="fill:none;stroke:#32cd32;stroke-linecap:square;stroke-width:15;"/>
   </g>
   <g id="line2d_32">
    <path clip-path="url(#p77b0f7d591)" d="M 540 2018.215385 
L 4321 2018.215385 
L 4321 2018.215385 
" style="fill:none;stroke:#000000;stroke-linecap:square;stroke-width:1.5;"/>
   </g>
   <g id="line2d_33">
    <path clip-path="url(#p77b0f7d591)" d="M 692.181818 1565.519908 
" style="fill:none;stroke:#1e90ff;stroke-linecap:square;stroke-width:1.5;"/>
    <defs>
     <path d="M 0 50 
C 13.260155 50 25.978994 44.731685 35.355339 35.355339 
C 44.731685 25.978994 50 13.260155 50 0 
C 50 -13.260155 44.731685 -25.978994 35.355339 -35.355339 
C 25.978994 -44.731685 13.260155 -50 0 -50 
C -13.260155 -50 -25.978994 -44.731685 -35.355339 -35.355339 
C -44.731685 -25.978994 -50 -13.260155 -50 0 
C -50 13.260155 -44.731685 25.978994 -35.355339 35.355339 
C -25.978994 44.731685 -13.260155 50 0 50 
z
" id="m8259aa9cc1" style="stroke:#1e90ff;"/>
    </defs>
    <g clip-path="url(#p77b0f7d591)">
     <use style="fill:#1e90ff;stroke:#1e90ff;" x="692.181818" xlink:href="#m8259aa9cc1" y="1565.519908"/>
    </g>
   </g>
   <g id="line2d_34">
    <path clip-path="url(#p77b0f7d591)" d="M 1199.454545 1598.006309 
" style="fill:none;stroke:#1e90ff;stroke-linecap:square;stroke-width:1.5;"/>
    <g clip-path="url(#p77b0f7d591)">
     <use style="fill:#1e90ff;stroke:#1e90ff;" x="1199.454545" xlink:href="#m8259aa9cc1" y="1598.006309"/>
    </g>
   </g>
   <g id="line2d_35">
    <path clip-path="url(#p77b0f7d591)" d="M 1706.727273 1597.180583 
" style="fill:none;stroke:#1e90ff;stroke-linecap:square;stroke-width:1.5;"/>
    <g clip-path="url(#p77b0f7d591)">
     <use style="fill:#1e90ff;stroke:#1e90ff;" x="1706.727273" xlink:href="#m8259aa9cc1" y="1597.180583"/>
    </g>
   </g>
   <g id="line2d_36">
    <path clip-path="url(#p77b0f7d591)" d="M 2214 1574.660566 
" style="fill:none;stroke:#1e90ff;stroke-linecap:square;stroke-width:1.5;"/>
    <g clip-path="url(#p77b0f7d591)">
     <use style="fill:#1e90ff;stroke:#1e90ff;" x="2214" xlink:href="#m8259aa9cc1" y="1574.660566"/>
    </g>
   </g>
   <g id="line2d_37">
    <path clip-path="url(#p77b0f7d591)" d="M 2721.272727 1557.492513 
" style="fill:none;stroke:#1e90ff;stroke-linecap:square;stroke-width:1.5;"/>
    <g clip-path="url(#p77b0f7d591)">
     <use style="fill:#1e90ff;stroke:#1e90ff;" x="2721.272727" xlink:href="#m8259aa9cc1" y="1557.492513"/>
    </g>
   </g>
   <g id="line2d_38">
    <path clip-path="url(#p77b0f7d591)" d="M 3228.545455 944.977729 
" style="fill:none;stroke:#1e90ff;stroke-linecap:square;stroke-width:1.5;"/>
    <g clip-path="url(#p77b0f7d591)">
     <use style="fill:#1e90ff;stroke:#1e90ff;" x="3228.545455" xlink:href="#m8259aa9cc1" y="944.977729"/>
    </g>
   </g>
   <g id="line2d_39">
    <path clip-path="url(#p77b0f7d591)" d="M 3735.818182 941.845966 
" style="fill:none;stroke:#1e90ff;stroke-linecap:square;stroke-width:1.5;"/>
    <g clip-path="url(#p77b0f7d591)">
     <use style="fill:#1e90ff;stroke:#1e90ff;" x="3735.818182" xlink:href="#m8259aa9cc1" y="941.845966"/>
    </g>
   </g>
   <g id="line2d_40">
    <path clip-path="url(#p77b0f7d591)" d="M 692.181818 1565.519908 
L 1199.454545 1598.006309 
L 1706.727273 1597.180583 
L 2214 1574.660566 
L 2721.272727 1557.492513 
L 3228.545455 944.977729 
L 3735.818182 941.845966 
" style="fill:none;stroke:#1e90ff;stroke-linecap:square;stroke-width:15;"/>
   </g>
   <g id="line2d_41">
    <path clip-path="url(#p77b0f7d591)" d="M 540 2018.215385 
L 4321 2018.215385 
L 4321 2018.215385 
" style="fill:none;stroke:#000000;stroke-linecap:square;stroke-width:1.5;"/>
   </g>
   <g id="patch_3">
    <path d="M 540 2520 
L 540 345.6 
" style="fill:none;stroke:#000000;stroke-linecap:square;stroke-linejoin:miter;stroke-width:0.8;"/>
   </g>
   <g id="patch_4">
    <path d="M 3888 2520 
L 3888 345.6 
" style="fill:none;stroke:#000000;stroke-linecap:square;stroke-linejoin:miter;stroke-width:0.8;"/>
   </g>
   <g id="patch_5">
    <path d="M 540 2520 
L 3888 2520 
" style="fill:none;stroke:#000000;stroke-linecap:square;stroke-linejoin:miter;stroke-width:0.8;"/>
   </g>
   <g id="patch_6">
    <path d="M 540 345.6 
L 3888 345.6 
" style="fill:none;stroke:#000000;stroke-linecap:square;stroke-linejoin:miter;stroke-width:0.8;"/>
   </g>
  </g>
 </g>
 <defs>
  <clipPath id="p77b0f7d591">
   <rect height="2174.4" width="3348" x="540" y="345.6"/>
  </clipPath>
 </defs>
</svg>
